PathFileType	4	(X/Y/Z)	/Users/itak/Documents/Research/Walk-IL/dataset/trc/00385_00012.trc
DataRate	CameraRate	NumFrames	NumMarkers	Units	OrigDataRate	OrigDataStartFrame	OrigNumFrames
100.000000	100.000000	4	55	mm	100.000000	375	600
Frame#	Time	RPSI			LPSI			L3			STRN			T10			C7			CLAV			RBAK			LBAK			LSHO			LUPA			LAEL			LAOL			LWTS			LWPS			LFRA			LIFD			LHPS			LHTS			RSHO			RUPA			RAEL			RAOL			RWTS			RWPS			RFRA			RIFD			RHTS			RHPS			RBHD			LFHD			RFHD			RHIP			RASI			LKNE			LTHI			LANK			LTIP			LTOE			LMT1			LMT5			LHEE			RKNE			RANK			RTIP			RTOE			RMT1			RMT5			RHEE			LASI			LBHD			LHIP			RTHI			*53			*54			
		X1	Y1	Z1	X2	Y2	Z2	X3	Y3	Z3	X4	Y4	Z4	X5	Y5	Z5	X6	Y6	Z6	X7	Y7	Z7	X8	Y8	Z8	X9	Y9	Z9	X10	Y10	Z10	X11	Y11	Z11	X12	Y12	Z12	X13	Y13	Z13	X14	Y14	Z14	X15	Y15	Z15	X16	Y16	Z16	X17	Y17	Z17	X18	Y18	Z18	X19	Y19	Z19	X20	Y20	Z20	X21	Y21	Z21	X22	Y22	Z22	X23	Y23	Z23	X24	Y24	Z24	X25	Y25	Z25	X26	Y26	Z26	X27	Y27	Z27	X28	Y28	Z28	X29	Y29	Z29	X30	Y30	Z30	X31	Y31	Z31	X32	Y32	Z32	X33	Y33	Z33	X34	Y34	Z34	X35	Y35	Z35	X36	Y36	Z36	X37	Y37	Z37	X38	Y38	Z38	X39	Y39	Z39	X40	Y40	Z40	X41	Y41	Z41	X42	Y42	Z42	X43	Y43	Z43	X44	Y44	Z44	X45	Y45	Z45	X46	Y46	Z46	X47	Y47	Z47	X48	Y48	Z48	X49	Y49	Z49	X50	Y50	Z50	X51	Y51	Z51	X52	Y52	Z52	X53	Y53	Z53	X54	Y54	Z54	X55	Y55	Z55	

376	3.75	-265.7439270019531	971.8446655273438	0.5407465100288391	-277.2724609375	958.2870483398438	-131.1348724365234	-267.4184265136719	1053.55078125	-64.34212493896484	-25.32015800476074	1208.554321289062	-69.10197448730469	-271.4612121582031	1155.253173828125	-72.42792510986328	-234.5237884521484	1403.564697265625	-81.41282653808594	-79.56356048583984	1327.370971679688	-70.05419158935547	-279.354248046875	1257.131958007812	-19.05314445495605	-248.3182525634766	1370.628295898438	-184.3596649169922	-159.6021423339844	1388.068969726562	-233.0788726806641	-186.3672027587891	1270.18212890625	-301.0433654785156	-170.1176910400391	1079.6318359375	-329.2233276367188	-209.6544189453125	1049.932006835938	-261.04052734375	-46.84938812255859	887.066650390625	-345.1752014160156	-117.0346832275391	866.47509765625	-383.1328735351562	-147.4341278076172	982.7542724609375	-351.60986328125	-16.85763168334961	712.85107421875	-367.5075073242188	-85.57693481445312	785.5844116210938	-392.5355834960938	-22.645263671875	797.5682983398438	-383.7867736816406	-185.1278839111328	1380.745727539062	78.11568450927734	-207.4423980712891	1319.76318359375	132.9180603027344	-255.7835540771484	1063.984619140625	163.6806488037109	-258.1254272460938	1056.680053710938	68.48365783691406	-148.9936218261719	838.5811157226562	154.8513641357422	-201.8255615234375	830.7952880859375	205.6101684570312	-242.0628356933594	995.9562377929688	183.0293579101562	-158.8900604248047	666.372314453125	159.3065185546875	-140.7930145263672	734.5762939453125	179.2216033935547	-202.7515563964844	741.5184936523438	206.39599609375	-212.0806427001953	1579.797973632812	13.83323764801025	-75.60667419433594	1609.01611328125	-127.190559387207	-84.74449920654297	1609.926635742188	-4.737420558929443	-177.6296844482422	954.9329833984375	109.3352355957031	-48.09200668334961	965.923095703125	47.40842056274414	-65.39936065673828	467.2528991699219	-244.4813690185547	-91.77617645263672	604.0968017578125	-247.9454803466797	-415.0167236328125	181.0642395019531	-213.0486450195312	-243.3647613525391	311.1796569824219	-242.3960113525391	-246.3219909667969	48.70851898193359	-174.1663513183594	-302.7334289550781	92.33546447753906	-134.7871856689453	-320.9483642578125	99.77934265136719	-238.7864379882812	-440.4531860351562	199.2402954101562	-152.837646484375	-57.91795349121094	471.3193969726562	59.18607711791992	-112.7426986694336	56.28374099731445	23.36393737792969	-44.63216781616211	344.4165344238281	38.27870941162109	66.86498260498047	33.94985961914062	-36.16901016235352	-8.272605895996094	35.97881698608398	-68.3204345703125	-27.97965049743652	49.41014862060547	29.300537109375	-186.3475494384766	39.40771102905273	-30.20250701904297	-80.11931610107422	953.572021484375	-212.64208984375	-218.1074829101562	1573.506225585938	-148.5604248046875	-193.3638153076172	950.35986328125	-247.6412353515625	-70.13405609130859	732.7387084960938	99.87021636962891	nan	nan	nan	nan	nan	nan	
377	3.76	-274.4972229003906	971.1226806640625	-0.0002319815248483792	-286.1405029296875	957.5848388671875	-131.6929626464844	-276.5418701171875	1052.625244140625	-65.10442352294922	-35.0278205871582	1207.910278320312	-70.29496765136719	-281.1548767089844	1154.055908203125	-73.94267272949219	-244.8146820068359	1402.365234375	-82.81085205078125	-89.70462799072266	1326.603759765625	-71.17085266113281	-289.3504638671875	1255.693237304688	-21.05579376220703	-258.35107421875	1369.502319335938	-185.8458404541016	-169.5668182373047	1387.31201171875	-234.1998901367188	-195.3723297119141	1269.409057617188	-302.4717102050781	-176.2450714111328	1079.124755859375	-330.8490905761719	-216.5328369140625	1048.896606445312	-263.2880249023438	-48.47456741333008	890.5458374023438	-347.5592346191406	-117.7213592529297	868.4164428710938	-386.3060302734375	-151.2937164306641	983.4395141601562	-353.7860717773438	-12.79721927642822	717.8897705078125	-372.6428833007812	-83.72142028808594	788.7432250976562	-396.7164001464844	-21.23896026611328	802.6099243164062	-387.4583129882812	-195.9775848388672	1379.372680664062	76.80199432373047	-218.3900909423828	1318.312377929688	131.2993774414062	-267.3634338378906	1062.576904296875	160.795654296875	-268.6395874023438	1055.500244140625	65.46938323974609	-162.873779296875	836.0936889648438	153.0597229003906	-216.4618835449219	829.0059814453125	203.0630950927734	-254.5037536621094	994.5383911132812	180.2311706542969	-174.7966156005859	664.0382080078125	157.5813446044922	-156.3038482666016	732.0032348632812	177.6081695556641	-218.4557342529297	739.7781982421875	203.9549865722656	-222.0003814697266	1578.8916015625	12.95637989044189	-85.21641540527344	1607.829833984375	-127.7605667114258	-94.49831390380859	1608.477294921875	-5.370565891265869	-186.2227630615234	954.7380981445312	108.5655899047852	-56.91299819946289	965.6161499023438	46.089111328125	-85.25775146484375	463.9226989746094	-245.8490753173828	-107.8082656860352	601.4931640625	-248.9071350097656	-441.406494140625	185.2404937744141	-214.4593505859375	-266.8373413085938	311.8556518554688	-243.8442993164062	-276.6905517578125	48.61171340942383	-173.5838775634766	-332.0056762695312	94.76554107666016	-134.8882904052734	-350.1092224121094	100.4801940917969	-238.875244140625	-466.3494567871094	205.0381011962891	-154.5776824951172	-61.50504302978516	471.9542846679688	58.61434173583984	-112.7004165649414	56.2296142578125	23.49063682556152	-47.04997634887695	345.1689147949219	37.88508987426758	66.78391265869141	33.9710693359375	-36.24000549316406	-8.32640266418457	36.04413986206055	-68.36912536621094	-27.90509986877441	49.41575241088867	29.33132553100586	-186.2658233642578	39.32827758789062	-29.70986366271973	-89.12419128417969	951.84326171875	-213.9352416992188	-227.8412933349609	1573.004760742188	-149.4171905517578	-202.5800018310547	948.9807739257812	-248.4146575927734	-76.88584899902344	733.0833129882812	99.29468536376953	nan	nan	nan	nan	nan	nan	
378	3.77	-283.3698425292969	970.3278198242188	-0.6111270785331726	-295.0326232910156	956.857666015625	-132.3255462646484	-285.72216796875	1051.655029296875	-65.936767578125	-44.80020141601562	1207.137451171875	-71.50031280517578	-290.9289855957031	1152.782104492188	-75.59022521972656	-255.1408996582031	1401.075317382812	-84.29125213623047	-99.88278961181641	1325.725463867188	-72.33298492431641	-299.4043579101562	1254.183471679688	-23.1685962677002	-268.3902282714844	1368.282958984375	-187.4114837646484	-179.5245513916016	1386.444946289062	-235.3706359863281	-204.3499145507812	1268.562744140625	-303.9831848144531	-182.437744140625	1078.595092773438	-332.5745849609375	-223.518310546875	1047.836791992188	-265.7063598632812	-50.36019897460938	894.0686645507812	-349.8759765625	-118.6051254272461	870.4686889648438	-389.4890747070312	-155.263671875	984.163330078125	-356.0284729003906	-9.022799491882324	723.2027587890625	-377.6321105957031	-82.09203338623047	792.0983276367188	-400.8618774414062	-20.13777732849121	807.808837890625	-391.0230407714844	-206.8766937255859	1377.90087890625	75.41663360595703	-229.4137878417969	1316.75634765625	129.5828247070312	-278.9488220214844	1061.067260742188	157.8438262939453	-279.1396484375	1054.215209960938	62.38471221923828	-176.6264343261719	833.5849609375	151.1625823974609	-230.9672546386719	827.162353515625	200.3865814208984	-266.9350280761719	993.029052734375	177.3431396484375	-190.5395812988281	661.7161254882812	155.5962524414062	-171.6680297851562	729.4105834960938	175.7957000732422	-234.0094757080078	737.990966796875	201.3068389892578	-231.9609680175781	1577.86279296875	11.99920558929443	-94.865234375	1606.547119140625	-128.4096069335938	-104.2841186523438	1606.927978515625	-6.093026638031006	-194.8859558105469	954.4408569335938	107.8285980224609	-65.86985778808594	965.172119140625	44.8046989440918	-105.2510375976562	460.7662048339844	-247.0626068115234	-123.9486618041992	598.9918212890625	-249.8470611572266	-467.0724792480469	188.6638031005859	-215.9313201904297	-290.0062866210938	312.3031616210938	-245.2330169677734	-306.2268981933594	48.39382553100586	-172.3362884521484	-360.5883178710938	97.01772308349609	-134.6035766601562	-378.4731140136719	100.6244430541992	-238.5765228271484	-491.6539001464844	210.2064514160156	-156.50244140625	-65.07859039306641	472.5847473144531	57.95236587524414	-112.63427734375	56.1749382019043	23.61913299560547	-49.43559265136719	345.9347839355469	37.42116165161133	66.71688079833984	34.00638198852539	-36.30593490600586	-8.373098373413086	36.096923828125	-68.42081451416016	-27.81247520446777	49.40628814697266	29.35459327697754	-186.1439361572266	39.30876922607422	-29.12558555603027	-98.12641906738281	950.0430908203125	-215.1887512207031	-237.6048431396484	1572.385986328125	-150.3440551757812	-211.8171691894531	947.6035766601562	-249.2529449462891	-83.67743682861328	733.3623657226562	98.67816925048828	nan	nan	nan	nan	nan	nan	
379	3.78	-292.3988647460938	969.4647827148438	-1.292043566703796	-303.977783203125	956.099365234375	-133.0232849121094	-294.9813232421875	1050.640747070312	-66.84209442138672	-54.64366912841797	1206.229614257812	-72.71401977539062	-300.7754516601562	1151.4384765625	-77.3433837890625	-265.4950866699219	1399.702026367188	-85.84725952148438	-110.0871047973633	1324.727416992188	-73.53657531738281	-309.517578125	1252.610717773438	-25.36648368835449	-278.4380187988281	1366.97607421875	-189.0494842529297	-189.4702453613281	1385.4736328125	-236.59033203125	-213.3124389648438	1267.648803710938	-305.571533203125	-188.7252197265625	1078.050048828125	-334.393798828125	-230.5899963378906	1046.736450195312	-268.2934875488281	-52.54113388061523	897.609130859375	-352.1253356933594	-119.7186279296875	872.6159057617188	-392.6741333007812	-159.3817596435547	984.9174194335938	-358.3275756835938	-5.61124324798584	728.734375	-382.4239807128906	-80.73848724365234	795.6194458007812	-404.9413146972656	-19.39046478271484	813.1200561523438	-394.4498291015625	-217.8074188232422	1376.33837890625	73.95860290527344	-240.5008697509766	1315.104248046875	127.7755661010742	-290.5427856445312	1059.468139648438	154.8453979492188	-289.6424560546875	1052.839965820312	59.2506103515625	-190.2193298339844	831.0679931640625	149.1605072021484	-245.3141479492188	825.2655639648438	197.5954895019531	-279.3393859863281	991.4367065429688	174.3858642578125	-206.1293334960938	659.4111328125	153.3132171630859	-186.8665313720703	726.7987060546875	173.7622680664062	-249.3734893798828	736.154296875	198.4495239257812	-241.9623565673828	1576.717651367188	10.96653366088867	-104.5596313476562	1605.176147460938	-129.1442718505859	-114.1059188842773	1605.291137695312	-6.90346097946167	-203.6937103271484	954.0195922851562	107.068733215332	-74.96743011474609	964.5742797851562	43.53567123413086	-125.3537826538086	457.7965087890625	-248.1066436767578	-140.2360992431641	596.5989379882812	-250.7510681152344	-491.9625549316406	191.2675476074219	-217.4765777587891	-312.8233337402344	312.4724731445312	-246.5466461181641	-334.8380126953125	47.96124649047852	-170.5028991699219	-388.3631591796875	98.96733093261719	-134.0149841308594	-405.911376953125	100.195930480957	-237.9646148681641	-516.3316650390625	214.6212921142578	-158.6132965087891	-68.66524505615234	473.2128601074219	57.19892883300781	-112.5451202392578	56.1213264465332	23.74859237670898	-51.82241821289062	346.7101135253906	36.88971328735352	66.67039489746094	34.05615997314453	-36.3758430480957	-8.411110877990723	36.13676071166992	-68.47914886474609	-27.71372413635254	49.37490463256836	29.36425590515137	-185.9986419677734	39.37036895751953	-28.49885177612305	-107.1626892089844	948.1781005859375	-216.4302673339844	-247.3979034423828	1571.651000976562	-151.3443908691406	-221.1093597412109	946.2208862304688	-250.1569061279297	-90.55493927001953	733.5742797851562	98.00267791748047	nan	nan	nan	nan	nan	nan	
